<svg width="207" height="193" viewBox="0 0 207 193" fill="none" xmlns="http://www.w3.org/2000/svg">
<g clip-path="url(#clip0_402_2)">
<path d="M10.1595 92.0588C11.5797 78.1631 11.023 60.585 28.1626 58.1323C36.3069 56.9668 46.6411 65.4327 49.1549 72.5495C51.24 78.4529 55.9372 85.0267 51.5371 91.1378C48.0809 95.9379 42.0251 98.0545 36.4936 95.2748C20.7852 87.3809 36.3569 70.4894 46.7205 68.2945C60.8661 65.2987 89.8699 91.3336 82.8963 106.453C76.9171 119.416 64.7363 108.652 68.1164 97.7339C72.8712 82.376 81.5221 78.2556 97.8024 85.5491C110.514 91.2438 114.999 108.968 111.722 120.701C111.041 123.138 111.02 138.168 109.159 137.457C90.8028 130.444 105.897 102.098 119.806 99.2661C135.787 96.0117 151.994 92.9012 166.673 100.377C174.566 104.397 193.763 122.646 188.521 115.505C181.96 106.57 173.913 93.8985 173.802 82.2532C173.768 78.788 173.395 67.7251 174.223 78.2642C175.076 89.1182 175.574 98.6987 178.297 108.674C178.903 110.894 182.897 112.704 184.587 114.084C186.018 115.253 179.063 115.937 178.299 116.174C171.696 118.22 166.958 123.125 162.835 128.467C159.155 133.235 155.787 140.67 151.371 140.425" stroke="black" stroke-width="4" stroke-linecap="round" stroke-linejoin="round"/>
</g>
<defs>
<clipPath id="clip0_402_2">
<rect width="207" height="193" fill="white"/>
</clipPath>
</defs>
</svg>
