<svg width="207" height="193" viewBox="0 0 207 193" fill="none" xmlns="http://www.w3.org/2000/svg">
<path d="M46.2637 17.6639C36.2261 27.3776 22.0725 37.8167 30.7509 52.7989C34.8746 59.9182 47.9196 62.7984 55.0659 60.3696C60.9936 58.3549 69.0643 57.9774 71.1426 50.7395C72.775 45.0543 70.6907 38.9873 65.0843 36.3618C49.1634 28.9058 45.5287 51.5904 50.2169 61.09C56.616 74.0562 95.0148 80.7321 102.577 65.8988C109.061 53.1808 93.0682 50.2721 86.5829 59.6827C77.4599 72.9207 79.5758 82.2662 95.3788 90.543C107.718 97.0055 124.417 89.5621 131.607 79.7275C133.1 77.685 144.894 68.368 143.184 67.3464C126.317 57.2655 113.388 86.6617 119.769 99.3411C127.101 113.909 134.686 128.566 149.641 135.472C157.683 139.185 183.897 142.975 175.044 143.275C163.965 143.65 149.032 145.168 139.814 152.286C137.071 154.404 128.15 160.956 136.941 155.085C145.996 149.039 153.83 143.503 163.352 139.47C165.471 138.572 169.364 140.59 171.494 141.064C173.297 141.465 169.532 135.578 169.245 134.83C166.766 128.377 167.688 121.621 169.333 115.076C170.802 109.235 174.559 101.989 171.634 98.6712" stroke="black" stroke-width="4" stroke-linecap="round" stroke-linejoin="round"/>
</svg>
