<svg width="207" height="193" viewBox="0 0 207 193" fill="none" xmlns="http://www.w3.org/2000/svg">
<g clip-path="url(#clip0_402_5)">
<path d="M75.7125 14.4581C106.881 21.7611 101.179 19.8238 125.45 39.3829C130.993 43.8501 139.44 49.6547 141.02 55.7901C143.352 64.8443 123.738 86.4277 112.704 74.5084C105.573 66.8053 107.749 56.7162 119.427 56.4662C138.579 56.0563 152.799 72.6993 157.856 85.5055C163.423 99.6044 157.045 112.312 141.262 117.479C134.051 119.839 122.975 115.646 129.688 108.761C143.494 94.5986 156.683 118.299 153.925 129.106C148.958 148.57 117.06 168.613 89.2346 158.271C80.5347 155.038 83.6122 152.723 87.4524 151.351C91.3492 149.958 101.322 143.946 98.582 146.457C93.7927 150.847 88.0382 151.779 81.5587 153.558C73.2013 155.853 89.9101 168.483 94.7093 172.738C97.2286 174.971 100.799 179.522 101.324 182.384C102.36 188.035 93.1709 171.858 91.7172 166.213" stroke="black" stroke-width="5" stroke-linecap="round" stroke-linejoin="round"/>
</g>
<defs>
<clipPath id="clip0_402_5">
<rect width="207" height="193" fill="white"/>
</clipPath>
</defs>
</svg>
