<svg width="90" height="176" viewBox="0 0 90 176" fill="none" xmlns="http://www.w3.org/2000/svg">
<path d="M87.4802 3.45809C56.3113 10.7611 62.0136 8.8238 37.743 28.3829C32.1998 32.8501 23.7524 38.6547 22.1724 44.7901C19.8407 53.8443 39.4543 75.4277 50.4887 63.5084C57.6199 55.8053 55.4437 45.7162 43.7656 45.4662C24.6142 45.0563 10.3935 61.6993 5.3367 74.5055C-0.230505 88.6044 6.14747 101.312 21.931 106.479C29.1414 108.839 40.2173 104.646 33.5049 97.761C19.6986 83.5986 6.51018 107.299 9.26774 118.106C14.2346 137.57 46.1323 157.613 73.958 147.271C82.658 144.038 79.5805 141.723 75.7403 140.351C71.8435 138.958 61.8712 132.946 64.6107 135.457C69.4 139.847 75.1545 140.779 81.634 142.558C89.9914 144.853 73.2826 157.483 68.4834 161.738C65.9641 163.971 62.3941 168.522 61.8692 171.384C60.8327 177.035 70.0217 160.858 71.4755 155.213" stroke="black" stroke-width="5" stroke-linecap="round" stroke-linejoin="round"/>
</svg>
